# xmcd
#
# Track frame offsets:
#	150
#	13795
#	28208
#	41883
#	53788
#	69913
#	85138
#	99958
#	112210
#	128263
#	138458
#	148963
#	161645
#	176113
#	187893
#	200938
#	211593
#	223130
#	238230
#	249983
#	266838
#	280890
#	296540
#
# Disc length: 4088 seconds
#
# Revision: 0
# Processed by: cddbd v1.4PL0 Copyright (c) Steve Scherf et al.
# Submitted via: audiograbber 1.81.03
#
DISCID=670ff617
DTITLE=Various Artist - Twenty Years With Kansa Records Vol.One
DYEAR=1900
DGENRE=Country
TTITLE0=Geary Hanley - She's Just Usin' You. Låt  1
TTITLE1=Geary Hanley - Even When I Ride In The Rain. 
TTITLE2=Geary Hanley - Go Ahead And Love Her, I Did.
TTITLE3=Kit Johnson - Just Like The Angels Do. 
TTITLE4=Kit Johnson - There's No One At Home At My House. 
TTITLE5=John Daly - Rio Grande. 
TTITLE6=John Daly - Wasted. 
TTITLE7=Debbie Dierks - Married In Las Vegas ( Divorced In Mexico ). 
TTITLE8=Debbie Dierks - Love's Easy Touch. 
TTITLE9=Pat Garrett - Coldest Toes In Town. 
TTITLE10=Cindy Lynn - Kiss The Dirt. 
TTITLE11=Glen Bailey - Makin' A Livin'. 
TTITLE12=Glen Bailey - Love's Gold. 
TTITLE13=Kit And Kay - I Want To Hear ) An Old Fashioned Love Song.
TTITLE14=Kit And Kay - Let No Man Put Asunder.  
TTITLE15=Buddy Ring - Think Of Me As Gone.  
TTITLE16=Buddy Ring - Cincinnati Rain.  
TTITLE17=Buddy Ring - Out Of Reach Of Love.  
TTITLE18=Caroline Kaye - Man With The Mandolin.  
TTITLE19=Dan Davis - I Just Got Used To You.  
TTITLE20=Dan Davis - Exit Number 9.  
TTITLE21=Dan Davis - Eternally Broke.  
TTITLE22=Jimmy Dallas - South Succotash.  
EXTD=
EXTT0=
EXTT1=
EXTT2=
EXTT3=
EXTT4=
EXTT5=
EXTT6=
EXTT7=
EXTT8=
EXTT9=
EXTT10=
EXTT11=
EXTT12=
EXTT13=
EXTT14=
EXTT15=
EXTT16=
EXTT17=
EXTT18=
EXTT19=
EXTT20=
EXTT21=
EXTT22=
PLAYORDER=
